<?xml version='1.0' encoding='UTF-8'?>
<svg width="37mm" height="37mm" version="1.1" viewBox="0 0 37 37" xmlns="http://www.w3.org/2000/svg"><path d="M2,2H3V3H2zM3,2H4V3H3zM4,2H5V3H4zM5,2H6V3H5zM6,2H7V3H6zM7,2H8V3H7zM8,2H9V3H8zM12,2H13V3H12zM14,2H15V3H14zM15,2H16V3H15zM17,2H18V3H17zM21,2H22V3H21zM22,2H23V3H22zM25,2H26V3H25zM28,2H29V3H28zM29,2H30V3H29zM30,2H31V3H30zM31,2H32V3H31zM32,2H33V3H32zM33,2H34V3H33zM34,2H35V3H34zM2,3H3V4H2zM8,3H9V4H8zM10,3H11V4H10zM12,3H13V4H12zM15,3H16V4H15zM16,3H17V4H16zM17,3H18V4H17zM18,3H19V4H18zM22,3H23V4H22zM24,3H25V4H24zM28,3H29V4H28zM34,3H35V4H34zM2,4H3V5H2zM4,4H5V5H4zM5,4H6V5H5zM6,4H7V5H6zM8,4H9V5H8zM14,4H15V5H14zM15,4H16V5H15zM20,4H21V5H20zM22,4H23V5H22zM23,4H24V5H23zM24,4H25V5H24zM26,4H27V5H26zM28,4H29V5H28zM30,4H31V5H30zM31,4H32V5H31zM32,4H33V5H32zM34,4H35V5H34zM2,5H3V6H2zM4,5H5V6H4zM5,5H6V6H5zM6,5H7V6H6zM8,5H9V6H8zM10,5H11V6H10zM11,5H12V6H11zM12,5H13V6H12zM14,5H15V6H14zM16,5H17V6H16zM17,5H18V6H17zM18,5H19V6H18zM19,5H20V6H19zM21,5H22V6H21zM25,5H26V6H25zM26,5H27V6H26zM28,5H29V6H28zM30,5H31V6H30zM31,5H32V6H31zM32,5H33V6H32zM34,5H35V6H34zM2,6H3V7H2zM4,6H5V7H4zM5,6H6V7H5zM6,6H7V7H6zM8,6H9V7H8zM11,6H12V7H11zM18,6H19V7H18zM19,6H20V7H19zM20,6H21V7H20zM21,6H22V7H21zM25,6H26V7H25zM28,6H29V7H28zM30,6H31V7H30zM31,6H32V7H31zM32,6H33V7H32zM34,6H35V7H34zM2,7H3V8H2zM8,7H9V8H8zM10,7H11V8H10zM11,7H12V8H11zM13,7H14V8H13zM14,7H15V8H14zM17,7H18V8H17zM18,7H19V8H18zM19,7H20V8H19zM22,7H23V8H22zM24,7H25V8H24zM26,7H27V8H26zM28,7H29V8H28zM34,7H35V8H34zM2,8H3V9H2zM3,8H4V9H3zM4,8H5V9H4zM5,8H6V9H5zM6,8H7V9H6zM7,8H8V9H7zM8,8H9V9H8zM10,8H11V9H10zM12,8H13V9H12zM14,8H15V9H14zM16,8H17V9H16zM18,8H19V9H18zM20,8H21V9H20zM22,8H23V9H22zM24,8H25V9H24zM26,8H27V9H26zM28,8H29V9H28zM29,8H30V9H29zM30,8H31V9H30zM31,8H32V9H31zM32,8H33V9H32zM33,8H34V9H33zM34,8H35V9H34zM11,9H12V10H11zM12,9H13V10H12zM13,9H14V10H13zM16,9H17V10H16zM17,9H18V10H17zM18,9H19V10H18zM21,9H22V10H21zM23,9H24V10H23zM24,9H25V10H24zM25,9H26V10H25zM2,10H3V11H2zM3,10H4V11H3zM4,10H5V11H4zM5,10H6V11H5zM6,10H7V11H6zM8,10H9V11H8zM9,10H10V11H9zM10,10H11V11H10zM11,10H12V11H11zM13,10H14V11H13zM17,10H18V11H17zM19,10H20V11H19zM20,10H21V11H20zM22,10H23V11H22zM24,10H25V11H24zM25,10H26V11H25zM26,10H27V11H26zM27,10H28V11H27zM29,10H30V11H29zM31,10H32V11H31zM33,10H34V11H33zM2,11H3V12H2zM5,11H6V12H5zM9,11H10V12H9zM10,11H11V12H10zM12,11H13V12H12zM14,11H15V12H14zM15,11H16V12H15zM16,11H17V12H16zM18,11H19V12H18zM19,11H20V12H19zM20,11H21V12H20zM21,11H22V12H21zM22,11H23V12H22zM23,11H24V12H23zM25,11H26V12H25zM26,11H27V12H26zM28,11H29V12H28zM32,11H33V12H32zM33,11H34V12H33zM34,11H35V12H34zM2,12H3V13H2zM3,12H4V13H3zM4,12H5V13H4zM5,12H6V13H5zM6,12H7V13H6zM7,12H8V13H7zM8,12H9V13H8zM12,12H13V13H12zM15,12H16V13H15zM16,12H17V13H16zM17,12H18V13H17zM24,12H25V13H24zM26,12H27V13H26zM27,12H28V13H27zM28,12H29V13H28zM29,12H30V13H29zM30,12H31V13H30zM31,12H32V13H31zM33,12H34V13H33zM4,13H5V14H4zM5,13H6V14H5zM7,13H8V14H7zM10,13H11V14H10zM14,13H15V14H14zM15,13H16V14H15zM18,13H19V14H18zM21,13H22V14H21zM23,13H24V14H23zM25,13H26V14H25zM27,13H28V14H27zM30,13H31V14H30zM32,13H33V14H32zM5,14H6V15H5zM8,14H9V15H8zM9,14H10V15H9zM11,14H12V15H11zM12,14H13V15H12zM14,14H15V15H14zM16,14H17V15H16zM19,14H20V15H19zM22,14H23V15H22zM24,14H25V15H24zM26,14H27V15H26zM27,14H28V15H27zM29,14H30V15H29zM30,14H31V15H30zM31,14H32V15H31zM2,15H3V16H2zM6,15H7V16H6zM9,15H10V16H9zM11,15H12V16H11zM18,15H19V16H18zM20,15H21V16H20zM21,15H22V16H21zM22,15H23V16H22zM23,15H24V16H23zM24,15H25V16H24zM25,15H26V16H25zM28,15H29V16H28zM29,15H30V16H29zM33,15H34V16H33zM34,15H35V16H34zM3,16H4V17H3zM4,16H5V17H4zM6,16H7V17H6zM8,16H9V17H8zM9,16H10V17H9zM10,16H11V17H10zM11,16H12V17H11zM12,16H13V17H12zM13,16H14V17H13zM14,16H15V17H14zM17,16H18V17H17zM18,16H19V17H18zM19,16H20V17H19zM20,16H21V17H20zM22,16H23V17H22zM26,16H27V17H26zM30,16H31V17H30zM33,16H34V17H33zM4,17H5V18H4zM6,17H7V18H6zM7,17H8V18H7zM9,17H10V18H9zM11,17H12V18H11zM13,17H14V18H13zM16,17H17V18H16zM17,17H18V18H17zM22,17H23V18H22zM23,17H24V18H23zM26,17H27V18H26zM27,17H28V18H27zM29,17H30V18H29zM32,17H33V18H32zM6,18H7V19H6zM7,18H8V19H7zM8,18H9V19H8zM9,18H10V19H9zM11,18H12V19H11zM13,18H14V19H13zM17,18H18V19H17zM19,18H20V19H19zM24,18H25V19H24zM27,18H28V19H27zM30,18H31V19H30zM33,18H34V19H33zM2,19H3V20H2zM4,19H5V20H4zM5,19H6V20H5zM6,19H7V20H6zM9,19H10V20H9zM10,19H11V20H10zM11,19H12V20H11zM12,19H13V20H12zM14,19H15V20H14zM15,19H16V20H15zM16,19H17V20H16zM18,19H19V20H18zM19,19H20V20H19zM20,19H21V20H20zM21,19H22V20H21zM22,19H23V20H22zM25,19H26V20H25zM28,19H29V20H28zM31,19H32V20H31zM33,19H34V20H33zM34,19H35V20H34zM2,20H3V21H2zM3,20H4V21H3zM4,20H5V21H4zM7,20H8V21H7zM8,20H9V21H8zM9,20H10V21H9zM10,20H11V21H10zM12,20H13V21H12zM15,20H16V21H15zM16,20H17V21H16zM17,20H18V21H17zM19,20H20V21H19zM24,20H25V21H24zM27,20H28V21H27zM28,20H29V21H28zM31,20H32V21H31zM33,20H34V21H33zM2,21H3V22H2zM3,21H4V22H3zM4,21H5V22H4zM5,21H6V22H5zM6,21H7V22H6zM9,21H10V22H9zM10,21H11V22H10zM14,21H15V22H14zM15,21H16V22H15zM17,21H18V22H17zM18,21H19V22H18zM22,21H23V22H22zM23,21H24V22H23zM24,21H25V22H24zM26,21H27V22H26zM28,21H29V22H28zM32,21H33V22H32zM3,22H4V23H3zM7,22H8V23H7zM8,22H9V23H8zM9,22H10V23H9zM11,22H12V23H11zM12,22H13V23H12zM14,22H15V23H14zM16,22H17V23H16zM19,22H20V23H19zM22,22H23V23H22zM24,22H25V23H24zM26,22H27V23H26zM27,22H28V23H27zM29,22H30V23H29zM30,22H31V23H30zM33,22H34V23H33zM2,23H3V24H2zM4,23H5V24H4zM5,23H6V24H5zM6,23H7V24H6zM9,23H10V24H9zM11,23H12V24H11zM18,23H19V24H18zM19,23H20V24H19zM20,23H21V24H20zM21,23H22V24H21zM22,23H23V24H22zM25,23H26V24H25zM27,23H28V24H27zM28,23H29V24H28zM31,23H32V24H31zM33,23H34V24H33zM34,23H35V24H34zM2,24H3V25H2zM4,24H5V25H4zM5,24H6V25H5zM6,24H7V25H6zM8,24H9V25H8zM9,24H10V25H9zM11,24H12V25H11zM13,24H14V25H13zM14,24H15V25H14zM17,24H18V25H17zM19,24H20V25H19zM22,24H23V25H22zM23,24H24V25H23zM24,24H25V25H24zM26,24H27V25H26zM27,24H28V25H27zM29,24H30V25H29zM31,24H32V25H31zM33,24H34V25H33zM2,25H3V26H2zM5,25H6V26H5zM6,25H7V26H6zM7,25H8V26H7zM9,25H10V26H9zM13,25H14V26H13zM16,25H17V26H16zM17,25H18V26H17zM20,25H21V26H20zM21,25H22V26H21zM23,25H24V26H23zM24,25H25V26H24zM25,25H26V26H25zM26,25H27V26H26zM27,25H28V26H27zM31,25H32V26H31zM32,25H33V26H32zM2,26H3V27H2zM4,26H5V27H4zM7,26H8V27H7zM8,26H9V27H8zM10,26H11V27H10zM11,26H12V27H11zM13,26H14V27H13zM17,26H18V27H17zM18,26H19V27H18zM19,26H20V27H19zM22,26H23V27H22zM25,26H26V27H25zM26,26H27V27H26zM27,26H28V27H27zM28,26H29V27H28zM29,26H30V27H29zM30,26H31V27H30zM31,26H32V27H31zM34,26H35V27H34zM10,27H11V28H10zM14,27H15V28H14zM15,27H16V28H15zM16,27H17V28H16zM18,27H19V28H18zM21,27H22V28H21zM22,27H23V28H22zM25,27H26V28H25zM26,27H27V28H26zM30,27H31V28H30zM32,27H33V28H32zM34,27H35V28H34zM2,28H3V29H2zM3,28H4V29H3zM4,28H5V29H4zM5,28H6V29H5zM6,28H7V29H6zM7,28H8V29H7zM8,28H9V29H8zM10,28H11V29H10zM11,28H12V29H11zM12,28H13V29H12zM15,28H16V29H15zM16,28H17V29H16zM17,28H18V29H17zM22,28H23V29H22zM23,28H24V29H23zM24,28H25V29H24zM25,28H26V29H25zM26,28H27V29H26zM28,28H29V29H28zM30,28H31V29H30zM31,28H32V29H31zM33,28H34V29H33zM2,29H3V30H2zM8,29H9V30H8zM12,29H13V30H12zM14,29H15V30H14zM15,29H16V30H15zM17,29H18V30H17zM18,29H19V30H18zM20,29H21V30H20zM22,29H23V30H22zM23,29H24V30H23zM24,29H25V30H24zM25,29H26V30H25zM26,29H27V30H26zM30,29H31V30H30zM31,29H32V30H31zM32,29H33V30H32zM33,29H34V30H33zM34,29H35V30H34zM2,30H3V31H2zM4,30H5V31H4zM5,30H6V31H5zM6,30H7V31H6zM8,30H9V31H8zM10,30H11V31H10zM11,30H12V31H11zM12,30H13V31H12zM14,30H15V31H14zM16,30H17V31H16zM19,30H20V31H19zM22,30H23V31H22zM24,30H25V31H24zM26,30H27V31H26zM27,30H28V31H27zM28,30H29V31H28zM29,30H30V31H29zM30,30H31V31H30zM34,30H35V31H34zM2,31H3V32H2zM4,31H5V32H4zM5,31H6V32H5zM6,31H7V32H6zM8,31H9V32H8zM10,31H11V32H10zM18,31H19V32H18zM21,31H22V32H21zM22,31H23V32H22zM23,31H24V32H23zM26,31H27V32H26zM27,31H28V32H27zM29,31H30V32H29zM30,31H31V32H30zM31,31H32V32H31zM33,31H34V32H33zM34,31H35V32H34zM2,32H3V33H2zM4,32H5V33H4zM5,32H6V33H5zM6,32H7V33H6zM8,32H9V33H8zM10,32H11V33H10zM11,32H12V33H11zM12,32H13V33H12zM13,32H14V33H13zM14,32H15V33H14zM17,32H18V33H17zM18,32H19V33H18zM19,32H20V33H19zM20,32H21V33H20zM25,32H26V33H25zM28,32H29V33H28zM32,32H33V33H32zM2,33H3V34H2zM8,33H9V34H8zM10,33H11V34H10zM12,33H13V34H12zM13,33H14V34H13zM16,33H17V34H16zM18,33H19V34H18zM20,33H21V34H20zM22,33H23V34H22zM23,33H24V34H23zM24,33H25V34H24zM27,33H28V34H27zM31,33H32V34H31zM32,33H33V34H32zM2,34H3V35H2zM3,34H4V35H3zM4,34H5V35H4zM5,34H6V35H5zM6,34H7V35H6zM7,34H8V35H7zM8,34H9V35H8zM10,34H11V35H10zM11,34H12V35H11zM12,34H13V35H12zM13,34H14V35H13zM19,34H20V35H19zM21,34H22V35H21zM24,34H25V35H24zM25,34H26V35H25zM26,34H27V35H26zM27,34H28V35H27zM29,34H30V35H29zM30,34H31V35H30zM33,34H34V35H33z" id="qr-path" fill="#000000" fill-opacity="1" fill-rule="nonzero" stroke="none" /></svg>