<svg xmlns="http://www.w3.org/2000/svg" fill="none" viewBox="0 0 24 24" stroke-width="1.5" height="256" width="256"><path stroke="#000000" stroke-linecap="round" stroke-linejoin="round" d="M9.625 8.75L1.625 8.75C1.21079 8.75 0.875 9.08579 0.875 9.5L0.875 14.5C0.875 14.9142 1.21079 15.25 1.625 15.25L9.625 15.25C10.0392 15.25 10.375 14.9142 10.375 14.5L10.375 9.5C10.375 9.08579 10.0392 8.75 9.625 8.75Z"></path><path stroke="#000000" stroke-linecap="round" stroke-linejoin="round" d="M10.375 12L18.625 12"></path><path stroke="#000000" stroke-linecap="round" stroke-linejoin="round" d="M18.625 21L15.625 21C15.2272 21 14.8456 20.842 14.5643 20.5607C14.283 20.2794 14.125 19.8978 14.125 19.5L14.125 4.5C14.125 4.10218 14.283 3.72065 14.5643 3.43934C14.8456 3.15804 15.2272 3 15.625 3L18.625 3"></path><path stroke="#000000" stroke-linecap="round" stroke-linejoin="round" d="M23.125 21C23.125 19.7574 22.1176 18.75 20.875 18.75C19.6324 18.75 18.625 19.7574 18.625 21C18.625 22.2426 19.6324 23.25 20.875 23.25C22.1176 23.25 23.125 22.2426 23.125 21Z"></path><path stroke="#000000" stroke-linecap="round" stroke-linejoin="round" d="M23.125 12C23.125 10.7574 22.1176 9.75 20.875 9.75C19.6324 9.75 18.625 10.7574 18.625 12C18.625 13.2426 19.6324 14.25 20.875 14.25C22.1176 14.25 23.125 13.2426 23.125 12Z"></path><path stroke="#000000" stroke-linecap="round" stroke-linejoin="round" d="M23.125 3C23.125 1.75736 22.1176 0.75 20.875 0.75C19.6324 0.75 18.625 1.75736 18.625 3C18.625 4.24264 19.6324 5.25 20.875 5.25C22.1176 5.25 23.125 4.24264 23.125 3Z"></path></svg>