<svg viewBox="0 0 24 24" height="256" width="256" xmlns="http://www.w3.org/2000/svg" stroke-width="1.5"><path d="M23.25,12a3,3,0,0,0-2.183-2.886,2.249,2.249,0,0,0-1.383-3.856,2.29,2.29,0,0,0-.411-.363,3,3,0,0,0-5.461-2.478,2.249,2.249,0,0,0-3.624,0A3,3,0,0,0,4.727,4.895a2.29,2.29,0,0,0-.411.363A2.249,2.249,0,0,0,2.933,9.114a3,3,0,0,0,0,5.773,2.248,2.248,0,0,0,1.383,3.855,2.29,2.29,0,0,0,.411.363,3,3,0,0,0,5.461,2.478,2.249,2.249,0,0,0,3.624,0,3,3,0,0,0,5.461-2.478,2.29,2.29,0,0,0,.411-.363,2.248,2.248,0,0,0,1.383-3.855A3,3,0,0,0,23.25,12Z" fill="none" stroke="#000000" stroke-linecap="round" stroke-linejoin="round"></path><path d="M12 22.5L12 8.25" fill="none" stroke="#000000" stroke-linecap="round" stroke-linejoin="round"></path><path d="M10.500 6.750 A1.500 1.500 0 1 0 13.500 6.750 A1.500 1.500 0 1 0 10.500 6.750 Z" fill="none" stroke="#000000" stroke-linecap="round" stroke-linejoin="round"></path><path d="M9 18.75L9 15.75 6.75 14.25 6.75 12" fill="none" stroke="#000000" stroke-linecap="round" stroke-linejoin="round"></path><path d="M5.250 10.500 A1.500 1.500 0 1 0 8.250 10.500 A1.500 1.500 0 1 0 5.250 10.500 Z" fill="none" stroke="#000000" stroke-linecap="round" stroke-linejoin="round"></path><path d="M15 18.75L15 15.75 17.25 14.25 17.25 12" fill="none" stroke="#000000" stroke-linecap="round" stroke-linejoin="round"></path><path d="M15.750 10.500 A1.500 1.500 0 1 0 18.750 10.500 A1.500 1.500 0 1 0 15.750 10.500 Z" fill="none" stroke="#000000" stroke-linecap="round" stroke-linejoin="round"></path></svg>